<?xml version="1.0" standalone="no"?>
<!DOCTYPE svg PUBLIC "-//W3C//DTD SVG 20010904//EN"
 "http://www.w3.org/TR/2001/REC-SVG-20010904/DTD/svg10.dtd">
<svg version="1.0" xmlns="http://www.w3.org/2000/svg"
 width="512.000000pt" height="512.000000pt" viewBox="0 0 512.000000 512.000000"
 preserveAspectRatio="xMidYMid meet">

<g transform="translate(0.000000,512.000000) scale(0.100000,-0.100000)"
fill="#000000" stroke="none">
<path d="M502 3948 c-7 -7 -12 -25 -12 -41 0 -16 111 -633 246 -1371 169 -921
251 -1346 261 -1358 15 -17 102 -18 1563 -18 1461 0 1548 1 1563 18 10 12 92
437 261 1358 135 738 246 1355 246 1371 0 16 -5 34 -12 41 -17 17 -53 15 -68
-3 -7 -8 -38 -155 -69 -327 -46 -250 -61 -314 -74 -316 -32 -6 -85 33 -203
153 -161 163 -195 180 -354 180 -159 0 -192 -17 -354 -180 -66 -67 -137 -130
-156 -140 -22 -12 -65 -20 -118 -23 -126 -7 -152 6 -304 159 -168 168 -199
184 -358 184 -159 0 -192 -17 -354 -180 -66 -67 -136 -130 -155 -140 -81 -41
-243 -36 -316 11 -22 15 -89 77 -150 138 -149 153 -186 171 -345 171 -159 0
-193 -17 -354 -180 -121 -123 -182 -169 -190 -143 -3 7 -29 149 -59 316 -30
166 -61 309 -67 317 -15 18 -51 20 -68 3z m865 -432 c37 -18 86 -59 170 -145
92 -93 132 -126 177 -147 113 -51 270 -50 379 5 48 23 89 57 175 146 136 141
179 165 292 165 112 0 151 -22 296 -168 158 -159 193 -177 349 -177 156 0 200
23 353 180 136 141 179 165 292 165 111 0 155 -24 282 -155 109 -113 168 -158
230 -177 21 -6 38 -15 38 -21 0 -5 -79 -439 -175 -963 -96 -525 -175 -956
-175 -959 0 -3 -670 -5 -1490 -5 -820 0 -1490 2 -1490 5 0 3 -79 434 -175 959
-96 524 -175 960 -174 967 0 8 26 26 57 41 42 20 86 57 172 144 138 141 178
164 290 164 58 0 87 -6 127 -24z"/>
</g>
</svg>
